<?xml version="1.0" encoding="iso-8859-1"?>
<!-- Generator: Adobe Illustrator 19.0.0, SVG Export Plug-In . SVG Version: 6.00 Build 0)  -->
<svg xmlns="http://www.w3.org/2000/svg" xmlns:xlink="http://www.w3.org/1999/xlink" version="1.1" id="Layer_1" x="0px" y="0px" viewBox="0 0 512 512" style="enable-background:new 0 0 512 512;" xml:space="preserve" width="512px" height="512px">
<g>
	<g>
		<polygon points="400.65,311.263 433.847,344.46 330.558,344.46 269.741,255.999 330.558,167.539 433.847,167.539 400.65,200.737     429.518,229.607 512,147.125 429.518,64.644 400.65,93.514 433.847,126.711 309.08,126.711 244.968,219.966 180.856,126.711     0,126.711 0,167.539 159.377,167.539 220.195,255.999 159.377,344.46 0,344.46 0,385.288 180.856,385.288 244.968,292.034     309.08,385.288 433.847,385.288 400.65,418.486 429.518,447.356 512,364.874 429.518,282.393   " fill="#12ffb9"/>
	</g>
</g>
<g>
</g>
<g>
</g>
<g>
</g>
<g>
</g>
<g>
</g>
<g>
</g>
<g>
</g>
<g>
</g>
<g>
</g>
<g>
</g>
<g>
</g>
<g>
</g>
<g>
</g>
<g>
</g>
<g>
</g>
</svg>
